<mxGraphModel arrows="1" connect="1" dx="1024" dy="592" fold="1" grid="1" gridSize="10" guides="1" math="0" page="1" pageHeight="1169" pageScale="1" pageWidth="827" shadow="0" tooltips="1"><root><mxCell id="WIyWlLk6GJQsqaUBKTNV-0"/><mxCell id="WIyWlLk6GJQsqaUBKTNV-1" parent="WIyWlLk6GJQsqaUBKTNV-0"/><mxCell id="WIyWlLk6GJQsqaUBKTNV-2" value="01_p1_Client_to_NTT_Consumer" style="rounded=1;whiteSpace=wrap;html=1;fontSize=12;glass=0;strokeWidth=1;shadow=0;" parent="WIyWlLk6GJQsqaUBKTNV-1" vertex="1"><mxGeometry x="900" y="100" width="120" height="40" as="geometry"/></mxCell><mxCell id="WIyWlLk6GJQsqaUBKTNV-21" value="00_p1_Audit_Logger" style="rounded=1;whiteSpace=wrap;html=1;fontSize=12;glass=0;strokeWidth=1;shadow=0;" parent="WIyWlLk6GJQsqaUBKTNV-1" vertex="1"><mxGeometry x="450" y="200" width="120" height="40" as="geometry"/></mxCell><mxCell id="8sIUwhSZAv_JCLybafT7-2" style="edgeStyle=orthogonalEdgeStyle;rounded=0;orthogonalLoop=1;jettySize=auto;html=1;entryX=0.5;entryY=0;entryDx=0;entryDy=0;" edge="1" parent="WIyWlLk6GJQsqaUBKTNV-1" source="WIyWlLk6GJQsqaUBKTNV-2" target="WIyWlLk6GJQsqaUBKTNV-21"><mxGeometry relative="1" as="geometry"/></mxCell><mxCell id="WIyWlLk6GJQsqaUBKTNV-22" value="02_p1_Accelerator_Main_Process" style="rounded=1;whiteSpace=wrap;html=1;fontSize=12;glass=0;strokeWidth=1;shadow=0;" parent="WIyWlLk6GJQsqaUBKTNV-1" vertex="1"><mxGeometry x="1350" y="200" width="120" height="40" as="geometry"/></mxCell><mxCell id="8sIUwhSZAv_JCLybafT7-3" style="edgeStyle=orthogonalEdgeStyle;rounded=0;orthogonalLoop=1;jettySize=auto;html=1;entryX=0.5;entryY=0;entryDx=0;entryDy=0;" edge="1" parent="WIyWlLk6GJQsqaUBKTNV-1" source="WIyWlLk6GJQsqaUBKTNV-2" target="WIyWlLk6GJQsqaUBKTNV-22"><mxGeometry relative="1" as="geometry"/></mxCell><mxCell id="WIyWlLk6GJQsqaUBKTNV-221" value="02_Sync_Response" style="rounded=1;whiteSpace=wrap;html=1;fontSize=12;glass=0;strokeWidth=1;shadow=0;" parent="WIyWlLk6GJQsqaUBKTNV-1" vertex="1"><mxGeometry x="964.2857142857142857142857142857143" y="300" width="120" height="40" as="geometry"/></mxCell><mxCell id="8sIUwhSZAv_JCLybafT7-4" style="edgeStyle=orthogonalEdgeStyle;rounded=0;orthogonalLoop=1;jettySize=auto;html=1;entryX=0.5;entryY=0;entryDx=0;entryDy=0;" edge="1" parent="WIyWlLk6GJQsqaUBKTNV-1" source="WIyWlLk6GJQsqaUBKTNV-22" target="WIyWlLk6GJQsqaUBKTNV-221"><mxGeometry relative="1" as="geometry"/></mxCell><mxCell id="WIyWlLk6GJQsqaUBKTNV-222" value="00_p1_Audit_Logger" style="rounded=1;whiteSpace=wrap;html=1;fontSize=12;glass=0;strokeWidth=1;shadow=0;" parent="WIyWlLk6GJQsqaUBKTNV-1" vertex="1"><mxGeometry x="1092.857142857142857142857142857143" y="300" width="120" height="40" as="geometry"/></mxCell><mxCell id="8sIUwhSZAv_JCLybafT7-5" style="edgeStyle=orthogonalEdgeStyle;rounded=0;orthogonalLoop=1;jettySize=auto;html=1;entryX=0.5;entryY=0;entryDx=0;entryDy=0;" edge="1" parent="WIyWlLk6GJQsqaUBKTNV-1" source="WIyWlLk6GJQsqaUBKTNV-22" target="WIyWlLk6GJQsqaUBKTNV-222"><mxGeometry relative="1" as="geometry"/></mxCell><mxCell id="WIyWlLk6GJQsqaUBKTNV-223" value="03_p1_SC-SP-Orchestration" style="rounded=1;whiteSpace=wrap;html=1;fontSize=12;glass=0;strokeWidth=1;shadow=0;" parent="WIyWlLk6GJQsqaUBKTNV-1" vertex="1"><mxGeometry x="1221.428571428571428571428571428572" y="300" width="120" height="40" as="geometry"/></mxCell><mxCell id="8sIUwhSZAv_JCLybafT7-6" style="edgeStyle=orthogonalEdgeStyle;rounded=0;orthogonalLoop=1;jettySize=auto;html=1;entryX=0.5;entryY=0;entryDx=0;entryDy=0;" edge="1" parent="WIyWlLk6GJQsqaUBKTNV-1" source="WIyWlLk6GJQsqaUBKTNV-22" target="WIyWlLk6GJQsqaUBKTNV-223"><mxGeometry relative="1" as="geometry"/></mxCell><mxCell id="WIyWlLk6GJQsqaUBKTNV-224" value="03_p1_SGCore" style="rounded=1;whiteSpace=wrap;html=1;fontSize=12;glass=0;strokeWidth=1;shadow=0;" parent="WIyWlLk6GJQsqaUBKTNV-1" vertex="1"><mxGeometry x="1350.000000000000000000000000000000" y="300" width="120" height="40" as="geometry"/></mxCell><mxCell id="8sIUwhSZAv_JCLybafT7-7" style="edgeStyle=orthogonalEdgeStyle;rounded=0;orthogonalLoop=1;jettySize=auto;html=1;entryX=0.5;entryY=0;entryDx=0;entryDy=0;" edge="1" parent="WIyWlLk6GJQsqaUBKTNV-1" source="WIyWlLk6GJQsqaUBKTNV-22" target="WIyWlLk6GJQsqaUBKTNV-224"><mxGeometry relative="1" as="geometry"/></mxCell><mxCell id="WIyWlLk6GJQsqaUBKTNV-225" value="03_p1_PostProcessing" style="rounded=1;whiteSpace=wrap;html=1;fontSize=12;glass=0;strokeWidth=1;shadow=0;" parent="WIyWlLk6GJQsqaUBKTNV-1" vertex="1"><mxGeometry x="1478.571428571428571428571428571429" y="300" width="120" height="40" as="geometry"/></mxCell><mxCell id="8sIUwhSZAv_JCLybafT7-8" style="edgeStyle=orthogonalEdgeStyle;rounded=0;orthogonalLoop=1;jettySize=auto;html=1;entryX=0.5;entryY=0;entryDx=0;entryDy=0;" edge="1" parent="WIyWlLk6GJQsqaUBKTNV-1" source="WIyWlLk6GJQsqaUBKTNV-22" target="WIyWlLk6GJQsqaUBKTNV-225"><mxGeometry relative="1" as="geometry"/></mxCell><mxCell id="WIyWlLk6GJQsqaUBKTNV-226" value="03_p1_Inbound_Transformation" style="rounded=1;whiteSpace=wrap;html=1;fontSize=12;glass=0;strokeWidth=1;shadow=0;" parent="WIyWlLk6GJQsqaUBKTNV-1" vertex="1"><mxGeometry x="1607.142857142857142857142857142857" y="300" width="120" height="40" as="geometry"/></mxCell><mxCell id="8sIUwhSZAv_JCLybafT7-9" style="edgeStyle=orthogonalEdgeStyle;rounded=0;orthogonalLoop=1;jettySize=auto;html=1;entryX=0.5;entryY=0;entryDx=0;entryDy=0;" edge="1" parent="WIyWlLk6GJQsqaUBKTNV-1" source="WIyWlLk6GJQsqaUBKTNV-22" target="WIyWlLk6GJQsqaUBKTNV-226"><mxGeometry relative="1" as="geometry"/></mxCell><mxCell id="WIyWlLk6GJQsqaUBKTNV-227" value="03_p1_Outbound_Transformation" style="rounded=1;whiteSpace=wrap;html=1;fontSize=12;glass=0;strokeWidth=1;shadow=0;" parent="WIyWlLk6GJQsqaUBKTNV-1" vertex="1"><mxGeometry x="1735.714285714285714285714285714286" y="300" width="120" height="40" as="geometry"/></mxCell><mxCell id="8sIUwhSZAv_JCLybafT7-10" style="edgeStyle=orthogonalEdgeStyle;rounded=0;orthogonalLoop=1;jettySize=auto;html=1;entryX=0.5;entryY=0;entryDx=0;entryDy=0;" edge="1" parent="WIyWlLk6GJQsqaUBKTNV-1" source="WIyWlLk6GJQsqaUBKTNV-22" target="WIyWlLk6GJQsqaUBKTNV-227"><mxGeometry relative="1" as="geometry"/></mxCell></root></mxGraphModel>